<?xml version="1.0" encoding="utf-8"?>
<!-- Generator: Adobe Illustrator 19.0.0, SVG Export Plug-In . SVG Version: 6.00 Build 0)  -->
<svg version="1.1" id="layer" xmlns="http://www.w3.org/2000/svg" xmlns:xlink="http://www.w3.org/1999/xlink" x="0px" y="0px"
	 viewBox="-153 -46 652 652" style="enable-background:new -153 -46 652 652;" xml:space="preserve">
<style type="text/css">
	.st0{fill:#FF671F;}
	.st1{fill:#FFFFFF;}
</style>
<rect id="BGR" x="-132" y="125" class="st0" width="600" height="300"/>
<path class="st1" d="M83.1,327.8h31.6l36.7-103.5h-31.7L83.1,327.8L83.1,327.8z M209.5,327.8h31.3l16.3-45.6
	c6.5-11,19.6-8.5,17.2,1.1l-15.7,44.5h32.7l15.5-43.5c4.1-10.9,21.2-11.6,17.5,1.3l-14.6,42.2h31.6l17.6-50
	c5.9-17-14.9-39.8-50.7-14.7c-4.2-11.4-21.9-18.6-45.4-2l1.6-6.8h-29.3L209.5,327.8L209.5,327.8z M359.5,225.7c1-3.3,4-5.6,7.5-5.6
	c4.3,0,7.8,3.6,7.8,7.9c0,4.3-3.6,7.8-7.9,7.8c-4.3,0-7.8-3.5-7.8-7.8C359.1,227.1,359.2,226.4,359.5,225.7l-0.9-0.4
	c-1.4,4.7,1.2,9.6,5.8,11c0.8,0.3,1.7,0.4,2.6,0.4c4.9,0,8.8-4,8.8-8.8c0-4.9-4-8.8-8.8-8.8c-3.9,0-7.3,2.5-8.4,6.2L359.5,225.7
	L359.5,225.7z M365.4,227.7h-0.3v-2.6h3.7c1.6,0.5,0.9,2.6-0.3,2.6H365.4l0,0.9h2.2c2.7,0.4,1.4,2.9,2,3.7h0.9
	c-0.7-1,0.5-2.9-1.2-3.9c1.1-0.5,1.7-1.8,1.2-3c-0.3-0.8-1.1-1.3-2-1.4h-4.3v8.1h0.9v-3.6h0.4L365.4,227.7L365.4,227.7z
	 M177.4,254.3h-29.6l-17.4,48.9c-8.7,27.6,19.1,36.8,45.6,17.7l-1.8,7h28.2l26-73.5h-30.2l-15.4,42c-3.6,10.3-23.7,16-20.6,0.3
	L177.4,254.3L177.4,254.3z M26.4,224.2h31.7l-11.8,34c39.1-23.2,58.7,8.4,41.5,40.2C66,342.5,25,332,23.1,319.6l-3.4,8.2H-10
	L26.4,224.2z M41.3,278.1c-1.7,1.6-3.2,3.5-4.6,5.4c-5.9,8.5-6.2,17.5-0.3,21.4c5.4,3.6,14.8-0.1,20.7-7.3
	c6.2-7.7,7.2-19.2,1.2-23.1C53.2,271.2,46.9,272.9,41.3,278.1 M-20,285.9c0,0,2.3-5.6,6.3-2.7l5.8,4.9c0,0,3,2.3,2.3-2l-3.5-29.8
	c0,0-0.6-4.7-3.9-1.5l-20.7,21c0,0-2.9,2.7-0.8,3.1l8.4-0.1c0,0,5.9-0.1,3.5,7.4l-14.5,41.6l-2.7,0l14.8-42.4c0,0,1-4.3-1.9-4
	l-8,0.1c-4.1,0-4.2-4.4-1.5-7l22.4-22.6c1.5-1.8,4.3-2,6.1-0.4c0.9,0.8,1.4,1.9,1.5,3.1c0.8,6.7,3.8,32.7,3.8,32.7
	c0.5,2-0.8,4-2.8,4.4c-1.4,0.3-2.9-0.2-3.8-1.4l-4.5-3.7c0,0-2.8-3-4,0.9l-14,40.2l-2.7,0L-20,285.9L-20,285.9z"/>
</svg>
